<?xml version="1.0" encoding="UTF-8"?>
<svg version="1.1" xmlns="http://www.w3.org/2000/svg" width="500" height="499">
<path d="M0 0 C3.75647851 17.55768836 7.16632102 35.17013526 10.44250488 52.82324219 C10.94453363 55.52237132 11.45051171 58.22075483 11.95639515 60.9191637 C12.56336439 64.1604706 13.16627163 67.40253222 13.76953125 70.64453125 C13.99445755 71.84431107 14.21938385 73.04409088 14.4511261 74.28022766 C14.65521591 75.38376083 14.85930573 76.48729401 15.06958008 77.62426758 C15.24991287 78.59334549 15.43024567 79.5624234 15.61604309 80.56086731 C16 83 16 83 16 86 C18.97 86 21.94 86 25 86 C25.10183594 84.74316406 25.20367187 83.48632812 25.30859375 82.19140625 C25.81680418 77.10123508 26.58764514 72.07388862 27.41015625 67.02734375 C27.54231537 66.21447906 27.67447449 65.40161438 27.81063843 64.56411743 C28.36588902 61.16356396 28.92474241 57.76365349 29.49145508 54.36499023 C29.90819474 51.85760261 30.31597223 49.34887924 30.72265625 46.83984375 C30.85076187 46.08646225 30.97886749 45.33308075 31.1108551 44.55686951 C32.28153903 37.26786815 33.28190729 30.1591088 29.5625 23.5 C29.11003906 22.6646875 28.65757812 21.829375 28.19140625 20.96875 C27.14916471 19.06954393 27.14916471 19.06954393 26 18 C25.95936168 16.33382885 25.957279 14.66611905 26 13 C30.00186193 12.97510565 34.00369328 12.95704873 38.00561523 12.94506836 C39.36434719 12.94006887 40.72307385 12.93326709 42.08178711 12.92456055 C44.04538585 12.91230158 46.00902541 12.90726513 47.97265625 12.90234375 C49.15093994 12.89710693 50.32922363 12.89187012 51.54321289 12.88647461 C55.09357576 13.00307315 58.49542884 13.4344941 62 14 C60.96094036 17.77839869 59.61565908 20.6451094 57.375 23.8125 C52.43229757 31.62138491 55.5476132 40.65997662 57.140625 49.1796875 C58.09761287 54.39115763 58.83636881 59.62713682 59.5625 64.875 C60.54615949 71.9505689 61.60482863 78.99131558 63 86 C65.64 86 68.28 86 71 86 C71.14695312 84.75863281 71.14695312 84.75863281 71.296875 83.4921875 C72.24215048 75.94628154 73.40732032 68.47060687 74.7890625 60.9921875 C75.04929703 59.57374542 75.04929703 59.57374542 75.31478882 58.12664795 C75.87414222 55.08398704 76.43675084 52.04194197 77 49 C77.18723633 47.98572937 77.37447266 46.97145874 77.56738281 45.92645264 C78.71079411 39.73832735 79.86754592 33.55286449 81.03710938 27.36962891 C81.4356761 25.25464317 81.83108445 23.13906025 82.22363281 21.02294922 C82.80057808 17.91490446 83.38744777 14.80888291 83.9765625 11.703125 C84.23755234 10.28003021 84.23755234 10.28003021 84.5038147 8.82818604 C84.67093964 7.95837097 84.83806458 7.08855591 85.01025391 6.19238281 C85.22532089 5.04615448 85.22532089 5.04615448 85.44473267 3.87677002 C86 2 86 2 88 0 C106.17804243 0.59600139 120.65666534 9.3843859 133 22 C148.6578807 38.95164626 149.18172167 59.99924566 149.0625 81.75 C149.0505138 84.6487599 149.03983335 87.54752447 149.02905273 90.44628906 C149.02353432 91.88641365 149.01799695 93.32653817 149.01243591 94.7666626 C149.00833206 95.83366394 149.00422821 96.90066528 149 98 C108.28466663 99.33515332 67.55662209 99.12068228 26.82537091 99.07202661 C17.11480677 99.06063756 7.40424174 99.05529788 -2.30632746 99.05032361 C-22.20422576 99.04000254 -42.10211201 99.02253177 -62 99 C-62.10018166 93.43567941 -62.17207677 87.87190361 -62.21972656 82.30688477 C-62.2396265 80.42072383 -62.26675654 78.53462278 -62.30175781 76.64868164 C-62.69882091 54.67591066 -58.41563973 35.67773889 -43 19 C-42.43152344 18.37738281 -41.86304688 17.75476563 -41.27734375 17.11328125 C-31.24692349 7.30330979 -14.00614516 0 0 0 Z " fill="#FEFEFE" transform="translate(206,283)"/>
<path d="M0 0 C3.4375 2 3.4375 2 4.99609375 3.0625 C7.91868082 4.4297922 10.80715672 4.61941847 14 5 C30.99658177 7.41100398 45.95901717 13.70741392 59 25 C59.67289063 25.57363281 60.34578125 26.14726562 61.0390625 26.73828125 C72.01535679 36.86838546 78.69735973 52.23674358 80 67 C80.19079697 72.33463194 80.12049839 77.66459899 80 83 C80.93457031 83.29519531 81.86914062 83.59039062 82.83203125 83.89453125 C87.65697745 85.57820545 90.16690088 87.62107732 92.8125 92 C95.57470739 99.29787748 94.89912836 108.87297612 92 116 C87.1404988 122.02578149 81.42045283 124.40338617 74 126 C73.89558594 126.86367187 73.79117188 127.72734375 73.68359375 128.6171875 C70.79472941 142.91293903 58.77149607 155.84906982 47.25390625 163.96875 C27.58890648 176.2446202 6.20728846 180.16104138 -16.46875 174.9765625 C-31.29790041 170.87558064 -43.38669796 164.13102409 -54 153 C-54.53496094 152.47148437 -55.06992188 151.94296875 -55.62109375 151.3984375 C-62.39673307 144.30589745 -67.83572054 134.82174215 -69 125 C-69.96099609 124.87044922 -69.96099609 124.87044922 -70.94140625 124.73828125 C-76.96647359 123.75954453 -81.64089251 122.43196166 -86 118 C-89.90285902 111.62533026 -90.77665257 105.36741253 -90 98 C-88.38300699 92.34931249 -86.17293659 88.07912892 -81 85 C-79.00826264 84.30903926 -77.00894394 83.63920943 -75 83 C-75.05220703 81.85337891 -75.05220703 81.85337891 -75.10546875 80.68359375 C-75.58291328 61.79043149 -70.21220538 43.72512469 -57.6796875 29.3359375 C-48.28174023 19.58446244 -37.89077888 13.56502573 -25.640625 8.2109375 C-21.63483617 6.37396333 -17.70982899 4.37593426 -13.78466797 2.3737793 C-8.62492692 -0.24361662 -5.71277416 -1.42819354 0 0 Z M-38.5078125 73.52734375 C-39.39318587 74.65398389 -40.26488122 75.79146348 -41.125 76.9375 C-44.76472461 81.61130871 -48.14801998 84.98155244 -53.125 88.3125 C-56.6270429 91.03020519 -57.82908268 92.35718745 -58.98046875 96.6875 C-59.44690723 100.81498434 -59.32412169 104.86666686 -59 109 C-58.91878906 110.06992188 -58.83757812 111.13984375 -58.75390625 112.2421875 C-56.85443675 127.00713596 -50.154507 140.47300938 -38.69140625 150.0546875 C-24.53794601 160.28461958 -7.60940914 166.33451134 9.98828125 163.70263672 C27.4006901 160.70230746 42.06688749 153.33060226 53.125 139.3046875 C60.69921423 128.10660354 64.17645664 116.38455293 64.1875 103 C64.19974609 102.21882813 64.21199219 101.43765625 64.22460938 100.6328125 C64.23626073 96.01887656 63.76075564 92.34273329 62 88 C60.76507813 87.81824219 59.53015625 87.63648438 58.2578125 87.44921875 C56.54686254 87.1953965 54.83592577 86.94148529 53.125 86.6875 C52.32191406 86.56955078 51.51882813 86.45160156 50.69140625 86.33007812 C47.79234741 85.89853883 44.89602784 85.45145051 42 85 C40.7735376 84.81026611 39.5470752 84.62053223 38.28344727 84.42504883 C22.7248047 81.9558728 7.31731841 78.69195472 -8.11303711 75.53491211 C-11.77896136 74.78608219 -15.44603745 74.04311755 -19.11328125 73.30078125 C-20.2340657 73.06958084 -21.35485016 72.83838043 -22.50959778 72.60017395 C-23.55226303 72.38962875 -24.59492828 72.17908356 -25.66918945 71.9621582 C-26.5808638 71.775793 -27.49253815 71.5894278 -28.43183899 71.39741516 C-34.06377976 70.37759907 -34.06377976 70.37759907 -38.5078125 73.52734375 Z M-75 97 C-76.50934217 100.01868434 -76.17510672 102.67297229 -76 106 C-75.01 107.485 -75.01 107.485 -74 109 C-72.26043342 107.26043342 -72.62809614 104.8063378 -72.4375 102.4375 C-72.35371094 101.42558594 -72.26992187 100.41367188 -72.18359375 99.37109375 C-72.12300781 98.58863281 -72.06242187 97.80617188 -72 97 C-72.99 97 -73.98 97 -75 97 Z M78 98 C78 101.96 78 105.92 78 110 C79.32 108.68 80.64 107.36 82 106 C81.85387105 102.30567489 81.85387105 102.30567489 81 99 C80.01 98.67 79.02 98.34 78 98 Z " fill="#FEFEFE" transform="translate(247,117)"/>
</svg>
