<?xml version="1.0" encoding="UTF-8"?>
<!DOCTYPE svg PUBLIC "-//W3C//DTD SVG 1.1//EN" "http://www.w3.org/Graphics/SVG/1.1/DTD/svg11.dtd">
<svg xmlns="http://www.w3.org/2000/svg" version="1.1" width="500px" height="500px" style="shape-rendering:geometricPrecision; text-rendering:geometricPrecision; image-rendering:optimizeQuality; fill-rule:evenodd; clip-rule:evenodd" xmlns:xlink="http://www.w3.org/1999/xlink">
<g><path style="opacity:0.004" fill="#fefffe" d="M 49.5,-0.5 C 49.8333,-0.5 50.1667,-0.5 50.5,-0.5C 50.3147,0.170143 49.9813,0.170143 49.5,-0.5 Z"/></g>
<g><path style="opacity:0.004" fill="#fefffe" d="M 32.5,5.5 C 33.8333,6.16667 33.8333,6.16667 32.5,5.5 Z"/></g>
<g><path style="opacity:0.004" fill="#fefffe" d="M 444.5,5.5 C 445.833,6.16667 445.833,6.16667 444.5,5.5 Z"/></g>
<g><path style="opacity:0.004" fill="#fefffe" d="M 432.5,14.5 C 433.833,15.1667 433.833,15.1667 432.5,14.5 Z"/></g>
<g><path style="opacity:0.004" fill="#fefffe" d="M 338.5,15.5 C 339.833,16.1667 339.833,16.1667 338.5,15.5 Z"/></g>
<g><path style="opacity:0.004" fill="#fefffe" d="M 151.5,28.5 C 152.833,29.1667 152.833,29.1667 151.5,28.5 Z"/></g>
<g><path style="opacity:0.004" fill="#fefffe" d="M 357.5,28.5 C 358.833,29.1667 358.833,29.1667 357.5,28.5 Z"/></g>
<g><path style="opacity:0.004" fill="#fefffe" d="M 413.5,28.5 C 414.833,29.1667 414.833,29.1667 413.5,28.5 Z"/></g>
<g><path style="opacity:0.004" fill="#fefffe" d="M 56.5,30.5 C 57.8333,31.1667 57.8333,31.1667 56.5,30.5 Z"/></g>
<g><path style="opacity:0.004" fill="#fefffe" d="M 243.5,31.5 C 244.833,32.1667 244.833,32.1667 243.5,31.5 Z"/></g>
<g><path style="opacity:0.004" fill="#fefffe" d="M 321.5,51.5 C 322.833,52.1667 322.833,52.1667 321.5,51.5 Z"/></g>
<g><path style="opacity:0.004" fill="#fefffe" d="M 215.5,52.5 C 216.833,53.1667 216.833,53.1667 215.5,52.5 Z"/></g>
<g><path style="opacity:0.004" fill="#fefffe" d="M 29.5,54.5 C 30.8333,55.1667 30.8333,55.1667 29.5,54.5 Z"/></g>
<g><path style="opacity:0.004" fill="#fefffe" d="M 273.5,58.5 C 274.833,59.1667 274.833,59.1667 273.5,58.5 Z"/></g>
<g><path style="opacity:0.004" fill="#fefffe" d="M 199.5,59.5 C 200.833,60.1667 200.833,60.1667 199.5,59.5 Z"/></g>
<g><path style="opacity:0.004" fill="#fefffe" d="M 394.5,59.5 C 395.833,60.1667 395.833,60.1667 394.5,59.5 Z"/></g>
<g><path style="opacity:0.004" fill="#fefffe" d="M 4.5,63.5 C 5.83333,64.1667 5.83333,64.1667 4.5,63.5 Z"/></g>
<g><path style="opacity:0.004" fill="#fefffe" d="M 91.5,67.5 C 92.8333,68.1667 92.8333,68.1667 91.5,67.5 Z"/></g>
<g><path style="opacity:0.004" fill="#fefffe" d="M 161.5,73.5 C 162.833,74.1667 162.833,74.1667 161.5,73.5 Z"/></g>
<g><path style="opacity:0.004" fill="#fefffe" d="M 4.5,81.5 C 5.83333,82.1667 5.83333,82.1667 4.5,81.5 Z"/></g>
<g><path style="opacity:0.004" fill="#fefffe" d="M 462.5,82.5 C 463.833,83.1667 463.833,83.1667 462.5,82.5 Z"/></g>
<g><path style="opacity:0.004" fill="#fefffe" d="M 329.5,94.5 C 330.833,95.1667 330.833,95.1667 329.5,94.5 Z"/></g>
<g><path style="opacity:0.004" fill="#fefffe" d="M 49.5,108.5 C 50.8333,109.167 50.8333,109.167 49.5,108.5 Z"/></g>
<g><path style="opacity:0.004" fill="#fefffe" d="M 213.5,122.5 C 214.833,123.167 214.833,123.167 213.5,122.5 Z"/></g>
<g><path style="opacity:0.004" fill="#fefffe" d="M 259.5,123.5 C 260.833,124.167 260.833,124.167 259.5,123.5 Z"/></g>
<g><path style="opacity:0.004" fill="#fefffe" d="M 66.5,130.5 C 67.8333,131.167 67.8333,131.167 66.5,130.5 Z"/></g>
<g><path style="opacity:0.004" fill="#fefffe" d="M 411.5,130.5 C 412.833,131.167 412.833,131.167 411.5,130.5 Z"/></g>
<g><path style="opacity:0.004" fill="#fefffe" d="M 181.5,131.5 C 182.833,132.167 182.833,132.167 181.5,131.5 Z"/></g>
<g><path style="opacity:1" fill="#00a34d" d="M 211.5,141.5 C 236.33,140.337 261.33,140.17 286.5,141C 271.132,141.12 255.799,141.787 240.5,143C 245.167,143.167 249.833,143.333 254.5,143.5C 262.641,142.918 270.641,142.918 278.5,143.5C 281.939,143.446 285.106,142.78 288,141.5C 288.817,170.19 288.65,198.857 287.5,227.5C 287.747,228.713 288.414,229.38 289.5,229.5C 290.167,229.167 290.833,228.833 291.5,228.5C 291.5,229.167 291.833,229.5 292.5,229.5C 302.653,230.494 312.986,230.828 323.5,230.5C 321.117,233.884 318.117,236.551 314.5,238.5C 303.671,242.497 293.671,247.997 284.5,255C 265.565,263.913 246.398,272.413 227,280.5C 224.626,279.135 222.126,278.135 219.5,277.5C 219.214,275.723 218.547,274.056 217.5,272.5C 218.933,270.664 219.433,268.664 219,266.5C 218.632,267.91 217.799,268.91 216.5,269.5C 214.167,267.167 211.833,264.833 209.5,262.5C 210.09,261.201 211.09,260.368 212.5,260C 211.833,259.833 211.167,259.667 210.5,259.5C 208.964,260.249 207.631,261.249 206.5,262.5C 205.274,260.722 203.607,259.722 201.5,259.5C 200.267,255.253 198.433,251.253 196,247.5C 193.093,246.569 190.26,245.569 187.5,244.5C 186.199,240.892 184.532,237.559 182.5,234.5C 180.217,234.392 178.217,233.559 176.5,232C 187.534,231.698 198.534,232.198 209.5,233.5C 211.425,233.41 212.592,232.41 213,230.5C 213.333,230.833 213.667,231.167 214,231.5C 215.852,229.77 215.686,228.604 213.5,228C 214.747,226.506 214.747,225.006 213.5,223.5C 212.158,224.902 211.324,224.569 211,222.5C 210.668,195.608 210.834,168.942 211.5,142.5C 211.334,152.506 211.5,162.506 212,172.5C 213.042,166.797 215.042,161.464 218,156.5C 219.171,155.107 220.671,154.273 222.5,154C 225.906,147.603 231.24,143.936 238.5,143C 229.608,141.557 220.608,141.057 211.5,141.5 Z"/></g>
<g><path style="opacity:0.004" fill="#fefffe" d="M 170.5,147.5 C 171.833,148.167 171.833,148.167 170.5,147.5 Z"/></g>
<g><path style="opacity:0.004" fill="#fefffe" d="M 429.5,151.5 C 430.833,152.167 430.833,152.167 429.5,151.5 Z"/></g>
<g><path style="opacity:0.004" fill="#fefffe" d="M 126.5,158.5 C 127.833,159.167 127.833,159.167 126.5,158.5 Z"/></g>
<g><path style="opacity:0.004" fill="#fefffe" d="M 141.5,159.5 C 142.833,160.167 142.833,160.167 141.5,159.5 Z"/></g>
<g><path style="opacity:0.418" fill="#7acb9a" d="M 290.5,138.5 C 262.995,138.169 235.662,138.502 208.5,139.5C 208.831,169.671 208.498,199.671 207.5,229.5C 207.5,198.833 207.5,168.167 207.5,137.5C 235.338,137.169 263.005,137.502 290.5,138.5 Z"/></g>
<g><path style="opacity:0.975" fill="#68af83" d="M 208.5,139.5 C 235.662,138.502 262.995,138.169 290.5,138.5C 291.498,168.329 291.831,198.329 291.5,228.5C 290.833,228.833 290.167,229.167 289.5,229.5C 289.667,199.831 289.5,170.165 289,140.5C 262.241,139.505 235.408,139.172 208.5,139.5 Z"/></g>
<g><path style="opacity:0.004" fill="#fefffe" d="M 184.5,168.5 C 185.833,169.167 185.833,169.167 184.5,168.5 Z"/></g>
<g><path style="opacity:1" fill="#0ca153" d="M 208.5,139.5 C 235.408,139.172 262.241,139.505 289,140.5C 289.5,170.165 289.667,199.831 289.5,229.5C 288.414,229.38 287.747,228.713 287.5,227.5C 288.65,198.857 288.817,170.19 288,141.5C 285.106,142.78 281.939,143.446 278.5,143.5C 270.641,142.918 262.641,142.918 254.5,143.5C 249.833,143.333 245.167,143.167 240.5,143C 255.799,141.787 271.132,141.12 286.5,141C 261.33,140.17 236.33,140.337 211.5,141.5C 211.5,141.833 211.5,142.167 211.5,142.5C 210.834,168.942 210.668,195.608 211,222.5C 211.324,224.569 212.158,224.902 213.5,223.5C 214.747,225.006 214.747,226.506 213.5,228C 215.686,228.604 215.852,229.77 214,231.5C 213.667,231.167 213.333,230.833 213,230.5C 212.592,232.41 211.425,233.41 209.5,233.5C 198.534,232.198 187.534,231.698 176.5,232C 178.217,233.559 180.217,234.392 182.5,234.5C 184.532,237.559 186.199,240.892 187.5,244.5C 182.895,241.564 178.895,237.898 175.5,233.5C 175.5,232.5 175.5,231.5 175.5,230.5C 186.346,230.828 197.013,230.494 207.5,229.5C 208.498,199.671 208.831,169.671 208.5,139.5 Z"/></g>
<g><path style="opacity:1" fill="#00ae4e" d="M 211.5,141.5 C 220.608,141.057 229.608,141.557 238.5,143C 231.24,143.936 225.906,147.603 222.5,154C 220.671,154.273 219.171,155.107 218,156.5C 215.042,161.464 213.042,166.797 212,172.5C 211.5,162.506 211.334,152.506 211.5,142.5C 211.5,142.167 211.5,141.833 211.5,141.5 Z"/></g>
<g><path style="opacity:0.004" fill="#fefffe" d="M 386.5,185.5 C 387.833,186.167 387.833,186.167 386.5,185.5 Z"/></g>
<g><path style="opacity:0.004" fill="#fefffe" d="M 157.5,191.5 C 158.833,192.167 158.833,192.167 157.5,191.5 Z"/></g>
<g><path style="opacity:0.004" fill="#fefffe" d="M 11.5,207.5 C 12.8333,208.167 12.8333,208.167 11.5,207.5 Z"/></g>
<g><path style="opacity:0.004" fill="#fefffe" d="M 352.5,208.5 C 353.833,209.167 353.833,209.167 352.5,208.5 Z"/></g>
<g><path style="opacity:0.004" fill="#fefffe" d="M 99.5,209.5 C 100.833,210.167 100.833,210.167 99.5,209.5 Z"/></g>
<g><path style="opacity:0.004" fill="#fefffe" d="M 29.5,215.5 C 30.8333,216.167 30.8333,216.167 29.5,215.5 Z"/></g>
<g><path style="opacity:0.471" fill="#84caa1" d="M 207.5,229.5 C 197.013,230.494 186.346,230.828 175.5,230.5C 175.5,231.5 175.5,232.5 175.5,233.5C 174.188,232.855 173.188,231.855 172.5,230.5C 184.148,229.501 195.814,229.168 207.5,229.5 Z"/></g>
<g><path style="opacity:0.455" fill="#85cea3" d="M 292.5,229.5 C 303.833,229.5 315.167,229.5 326.5,229.5C 326.737,230.791 326.404,231.791 325.5,232.5C 325.5,231.167 324.833,230.5 323.5,230.5C 312.986,230.828 302.653,230.494 292.5,229.5 Z"/></g>
<g><path style="opacity:0.004" fill="#fefffe" d="M 130.5,234.5 C 131.833,235.167 131.833,235.167 130.5,234.5 Z"/></g>
<g><path style="opacity:0.004" fill="#fefffe" d="M 471.5,244.5 C 472.833,245.167 472.833,245.167 471.5,244.5 Z"/></g>
<g><path style="opacity:0.914" fill="#489d7a" d="M 313.5,243.5 C 311.833,245.833 309.833,247.833 307.5,249.5C 307.194,245.303 309.194,243.303 313.5,243.5 Z"/></g>
<g><path style="opacity:1" fill="#29915a" d="M 323.5,230.5 C 324.833,230.5 325.5,231.167 325.5,232.5C 321.826,236.507 317.826,240.174 313.5,243.5C 309.194,243.303 307.194,245.303 307.5,249.5C 300.833,256.833 293.833,263.833 286.5,270.5C 286.421,269.07 286.754,267.736 287.5,266.5C 286.975,265.808 286.308,265.308 285.5,265C 286.667,264.5 287.5,263.667 288,262.5C 288.561,263.022 289.228,263.355 290,263.5C 294.424,260.91 297.591,257.243 299.5,252.5C 298.025,249.755 298.691,247.588 301.5,246C 305.474,244.383 309.474,242.716 313.5,241C 314.252,240.329 314.586,239.496 314.5,238.5C 318.117,236.551 321.117,233.884 323.5,230.5 Z"/></g>
<g><path style="opacity:1" fill="#3ba86a" d="M 187.5,244.5 C 190.26,245.569 193.093,246.569 196,247.5C 198.433,251.253 200.267,255.253 201.5,259.5C 196.812,254.48 192.145,249.48 187.5,244.5 Z"/></g>
<g><path style="opacity:1" fill="#048847" d="M 314.5,238.5 C 314.586,239.496 314.252,240.329 313.5,241C 309.474,242.716 305.474,244.383 301.5,246C 298.691,247.588 298.025,249.755 299.5,252.5C 297.591,257.243 294.424,260.91 290,263.5C 289.228,263.355 288.561,263.022 288,262.5C 287.5,263.667 286.667,264.5 285.5,265C 286.308,265.308 286.975,265.808 287.5,266.5C 286.754,267.736 286.421,269.07 286.5,270.5C 282.584,268.737 280.917,270.071 281.5,274.5C 280.448,274.351 279.448,274.517 278.5,275C 277.237,277.386 275.403,279.219 273,280.5C 271.331,282.169 270.498,284.169 270.5,286.5C 270.5,287.167 270.167,287.5 269.5,287.5C 269.44,286.957 269.107,286.624 268.5,286.5C 264.767,290.24 260.767,293.573 256.5,296.5C 255.201,298.758 254.201,301.092 253.5,303.5C 250.833,303.5 248.167,303.5 245.5,303.5C 240.827,299.16 236.494,294.494 232.5,289.5C 232.739,287.533 232.406,285.699 231.5,284C 228.721,283.439 226.054,282.606 223.5,281.5C 221.833,280.5 220.5,279.167 219.5,277.5C 222.126,278.135 224.626,279.135 227,280.5C 246.398,272.413 265.565,263.913 284.5,255C 293.671,247.997 303.671,242.497 314.5,238.5 Z"/></g>
<g><path style="opacity:0.004" fill="#fefffe" d="M 323.5,262.5 C 324.833,263.167 324.833,263.167 323.5,262.5 Z"/></g>
<g><path style="opacity:1" fill="#2da65f" d="M 201.5,259.5 C 203.607,259.722 205.274,260.722 206.5,262.5C 207.631,261.249 208.964,260.249 210.5,259.5C 211.167,259.667 211.833,259.833 212.5,260C 211.09,260.368 210.09,261.201 209.5,262.5C 211.833,264.833 214.167,267.167 216.5,269.5C 217.799,268.91 218.632,267.91 219,266.5C 219.433,268.664 218.933,270.664 217.5,272.5C 218.547,274.056 219.214,275.723 219.5,277.5C 213.167,271.833 207.167,265.833 201.5,259.5 Z"/></g>
<g><path style="opacity:0.004" fill="#fefffe" d="M 18.5,273.5 C 19.8333,274.167 19.8333,274.167 18.5,273.5 Z"/></g>
<g><path style="opacity:1" fill="#717375" d="M 127.5,273.5 C 139.569,272.17 151.735,272.17 164,273.5C 164.5,290.163 164.667,306.83 164.5,323.5C 221.167,323.5 277.833,323.5 334.5,323.5C 334.17,306.658 334.503,289.992 335.5,273.5C 347.235,274.176 359.069,274.843 371,275.5C 371.954,286.598 371.62,297.598 370,308.5C 364.815,313.348 359.315,317.848 353.5,322C 348.097,323.869 343.097,326.535 338.5,330C 270.496,354.297 200.162,364.13 127.5,359.5C 127.5,331.167 127.5,302.833 127.5,274.5C 170.167,274.167 170.167,273.833 127.5,273.5 Z"/></g>
<g><path style="opacity:0.998" fill="#1f8756" d="M 286.5,270.5 C 281.5,276.167 276.167,281.5 270.5,286.5C 270.498,284.169 271.331,282.169 273,280.5C 275.403,279.219 277.237,277.386 278.5,275C 279.448,274.517 280.448,274.351 281.5,274.5C 280.917,270.071 282.584,268.737 286.5,270.5 Z"/></g>
<g><path style="opacity:0.004" fill="#fefffe" d="M 0.5,282.5 C 1.83333,283.167 1.83333,283.167 0.5,282.5 Z"/></g>
<g><path style="opacity:1" fill="#6d6d6d" d="M 127.5,273.5 C 170.167,273.833 170.167,274.167 127.5,274.5C 127.5,302.833 127.5,331.167 127.5,359.5C 200.162,364.13 270.496,354.297 338.5,330C 343.097,326.535 348.097,323.869 353.5,322C 359.315,317.848 364.815,313.348 370,308.5C 371.62,297.598 371.954,286.598 371,275.5C 359.069,274.843 347.235,274.176 335.5,273.5C 347.902,272.17 360.402,272.17 373,273.5C 373.5,302.831 373.667,332.165 373.5,361.5C 291.166,361.667 208.833,361.5 126.5,361C 125.837,346.406 125.504,331.739 125.5,317C 125.501,302.151 126.167,287.651 127.5,273.5 Z"/></g>
<g><path style="opacity:0.957" fill="#4f9b74" d="M 245.5,303.5 C 248.167,303.5 250.833,303.5 253.5,303.5C 250.629,308.447 247.962,308.447 245.5,303.5 Z"/></g>
<g><path style="opacity:0.906" fill="#3f9c71" d="M 269.5,287.5 C 264.5,293.167 259.167,298.5 253.5,303.5C 254.201,301.092 255.201,298.758 256.5,296.5C 260.767,293.573 264.767,290.24 268.5,286.5C 269.107,286.624 269.44,286.957 269.5,287.5 Z"/></g>
<g><path style="opacity:0.004" fill="#fefffe" d="M 322.5,292.5 C 323.833,293.167 323.833,293.167 322.5,292.5 Z"/></g>
<g><path style="opacity:1" fill="#329366" d="M 223.5,281.5 C 226.054,282.606 228.721,283.439 231.5,284C 232.406,285.699 232.739,287.533 232.5,289.5C 228.9,287.57 225.9,284.903 223.5,281.5 Z"/></g>
<g><path style="opacity:0.004" fill="#fefffe" d="M 200.5,280.5 C 201.833,281.167 201.833,281.167 200.5,280.5 Z"/></g>
<g><path style="opacity:0.004" fill="#fefffe" d="M 476.5,308.5 C 477.833,309.167 477.833,309.167 476.5,308.5 Z"/></g>
<g><path style="opacity:0.004" fill="#fefffe" d="M 455.5,314.5 C 456.833,315.167 456.833,315.167 455.5,314.5 Z"/></g>
<g><path style="opacity:0.004" fill="#fefffe" d="M 90.5,315.5 C 91.8333,316.167 91.8333,316.167 90.5,315.5 Z"/></g>
<g><path style="opacity:0.004" fill="#fefffe" d="M 85.5,316.5 C 86.8333,317.167 86.8333,317.167 85.5,316.5 Z"/></g>
<g><path style="opacity:0.004" fill="#fefffe" d="M 253.5,317.5 C 254.833,318.167 254.833,318.167 253.5,317.5 Z"/></g>
<g><path style="opacity:0.004" fill="#fefffe" d="M 49.5,320.5 C 50.8333,321.167 50.8333,321.167 49.5,320.5 Z"/></g>
<g><path style="opacity:0.004" fill="#fefffe" d="M 485.5,323.5 C 486.833,324.167 486.833,324.167 485.5,323.5 Z"/></g>
<g><path style="opacity:0.004" fill="#fefffe" d="M 444.5,327.5 C 445.833,328.167 445.833,328.167 444.5,327.5 Z"/></g>
<g><path style="opacity:0.004" fill="#fefffe" d="M 63.5,361.5 C 64.8333,362.167 64.8333,362.167 63.5,361.5 Z"/></g>
<g><path style="opacity:0.004" fill="#fefffe" d="M 21.5,367.5 C 22.8333,368.167 22.8333,368.167 21.5,367.5 Z"/></g>
<g><path style="opacity:0.004" fill="#fefffe" d="M 472.5,371.5 C 473.833,372.167 473.833,372.167 472.5,371.5 Z"/></g>
<g><path style="opacity:0.004" fill="#fefffe" d="M 342.5,378.5 C 343.833,379.167 343.833,379.167 342.5,378.5 Z"/></g>
<g><path style="opacity:0.004" fill="#fefffe" d="M 149.5,385.5 C 148.833,384.167 148.833,384.167 149.5,385.5 Z"/></g>
<g><path style="opacity:0.004" fill="#fefffe" d="M 149.5,385.5 C 150.833,386.167 150.833,386.167 149.5,385.5 Z"/></g>
<g><path style="opacity:0.004" fill="#fefffe" d="M 128.5,387.5 C 129.833,388.167 129.833,388.167 128.5,387.5 Z"/></g>
<g><path style="opacity:0.004" fill="#fefffe" d="M 188.5,390.5 C 189.833,391.167 189.833,391.167 188.5,390.5 Z"/></g>
<g><path style="opacity:0.004" fill="#fefffe" d="M 0.5,394.5 C 1.83333,395.167 1.83333,395.167 0.5,394.5 Z"/></g>
<g><path style="opacity:0.004" fill="#fefffe" d="M 484.5,395.5 C 485.833,396.167 485.833,396.167 484.5,395.5 Z"/></g>
<g><path style="opacity:0.004" fill="#fefffe" d="M 274.5,409.5 C 275.833,410.167 275.833,410.167 274.5,409.5 Z"/></g>
<g><path style="opacity:0.004" fill="#fefffe" d="M 497.5,416.5 C 498.833,417.167 498.833,417.167 497.5,416.5 Z"/></g>
<g><path style="opacity:0.004" fill="#fefffe" d="M 264.5,419.5 C 265.833,420.167 265.833,420.167 264.5,419.5 Z"/></g>
<g><path style="opacity:0.004" fill="#fefffe" d="M 152.5,420.5 C 153.833,421.167 153.833,421.167 152.5,420.5 Z"/></g>
<g><path style="opacity:0.004" fill="#fefffe" d="M 406.5,432.5 C 407.833,433.167 407.833,433.167 406.5,432.5 Z"/></g>
<g><path style="opacity:0.004" fill="#fefffe" d="M 437.5,434.5 C 438.833,435.167 438.833,435.167 437.5,434.5 Z"/></g>
<g><path style="opacity:0.004" fill="#fefffe" d="M 57.5,442.5 C 58.8333,443.167 58.8333,443.167 57.5,442.5 Z"/></g>
<g><path style="opacity:0.004" fill="#fefffe" d="M 470.5,443.5 C 471.833,444.167 471.833,444.167 470.5,443.5 Z"/></g>
<g><path style="opacity:0.004" fill="#fefffe" d="M 492.5,450.5 C 493.833,451.167 493.833,451.167 492.5,450.5 Z"/></g>
<g><path style="opacity:0.004" fill="#fefffe" d="M 266.5,456.5 C 267.833,457.167 267.833,457.167 266.5,456.5 Z"/></g>
<g><path style="opacity:0.004" fill="#fefffe" d="M 275.5,466.5 C 276.833,467.167 276.833,467.167 275.5,466.5 Z"/></g>
<g><path style="opacity:0.004" fill="#fefffe" d="M 278.5,470.5 C 279.833,471.167 279.833,471.167 278.5,470.5 Z"/></g>
<g><path style="opacity:0.004" fill="#fefffe" d="M 201.5,472.5 C 202.833,473.167 202.833,473.167 201.5,472.5 Z"/></g>
<g><path style="opacity:0.004" fill="#fefffe" d="M 58.5,499.5 C 57.8333,498.167 57.8333,498.167 58.5,499.5 Z"/></g>
</svg>
